<svg xmlns="http://www.w3.org/2000/svg" width="16" height="16" viewBox="0 0 16 16"><path fill="#424242" d="M4.25,2.90909 L11.75,2.90909 L11.75,4.36364 L13.25,4.36364 L13.25,1.45455 C13.25,0.654545 12.575,0.00727272 11.75,0.00727272 L4.25,0 C3.425,0 2.75,0.654545 2.75,1.45455 L2.75,4.36364 L4.25,4.36364 L4.25,2.90909 Z M10.5575,11.3382 L14,8 L10.5575,4.66182 L9.5,5.69455 L11.8775,8 L9.5,10.3055 L10.5575,11.3382 Z M6.5,10.3055 L4.1225,8 L6.5,5.69455 L5.4425,4.66182 L2,8 L5.4425,11.3382 L6.5,10.3055 Z M11.75,13.0909 L4.25,13.0909 L4.25,11.6364 L2.75,11.6364 L2.75,14.5455 C2.75,15.3455 3.425,16 4.25,16 L11.75,16 C12.575,16 13.25,15.3455 13.25,14.5455 L13.25,11.6364 L11.75,11.6364 L11.75,13.0909 Z"/></svg>