<svg xmlns="http://www.w3.org/2000/svg" width="16" height="16" viewBox="0 0 16 16"><path fill="#424242" d="M7.9987,11.9974 C8.82352,11.9974 9.49837,11.3225 9.49837,10.4977 C9.49837,9.6729 8.82352,8.99805 7.9987,8.99805 C7.17388,8.99805 6.49902,9.6729 6.49902,10.4977 C6.49902,11.3225 7.17388,11.9974 7.9987,11.9974 Z M12.4977,5.24886 L11.7479,5.24886 L11.7479,3.74919 C11.7479,1.67964 10.0682,0 7.9987,0 C5.92915,0 4.24951,1.67964 4.24951,3.74919 L4.24951,5.24886 L3.49967,5.24886 C2.67485,5.24886 2,5.92371 2,6.74854 L2,14.2469 C2,15.0717 2.67485,15.7466 3.49967,15.7466 L12.4977,15.7466 C13.3225,15.7466 13.9974,15.0717 13.9974,14.2469 L13.9974,6.74854 C13.9974,5.92371 13.3225,5.24886 12.4977,5.24886 Z M5.6742,3.74919 C5.6742,2.46696 6.71648,1.42469 7.9987,1.42469 C9.28092,1.42469 10.3232,2.46696 10.3232,3.74919 L10.3232,5.24886 L5.6742,5.24886 L5.6742,3.74919 Z M12.4977,14.2469 L3.49967,14.2469 L3.49967,6.74854 L12.4977,6.74854 L12.4977,14.2469 Z"/></svg>