<svg xmlns="http://www.w3.org/2000/svg" width="16" height="16" viewBox="0 0 16 16"><path fill="#424242" d="M8,6.44444 C7.14444,6.44444 6.44444,7.14444 6.44444,8 C6.44444,8.85556 7.14444,9.55556 8,9.55556 C8.85556,9.55556 9.55556,8.85556 9.55556,8 C9.55556,7.14444 8.85556,6.44444 8,6.44444 Z M13.4444,1 L2.55556,1 C1.69222,1 1,1.7 1,2.55556 L1,13.4444 C1,14.3 1.69222,15 2.55556,15 L13.4444,15 C14.3078,15 15,14.3 15,13.4444 L15,2.55556 C15,1.7 14.3078,1 13.4444,1 Z M12.0833,8 C12.0833,8.17889 12.0678,8.35778 12.0444,8.52889 L13.1956,9.43111 C13.2967,9.51667 13.3278,9.66444 13.2578,9.78111 L12.1689,11.6633 C12.0989,11.78 11.9589,11.8267 11.8344,11.78 L10.4811,11.2356 C10.2011,11.4533 9.89,11.6322 9.56333,11.7722 L9.36111,13.2111 C9.33778,13.3433 9.22111,13.4444 9.08889,13.4444 L6.91111,13.4444 C6.77889,13.4444 6.66222,13.3433 6.63889,13.2189 L6.43667,11.78 C6.10222,11.64 5.79889,11.4611 5.51889,11.2433 L4.16556,11.7878 C4.04111,11.8344 3.90111,11.7878 3.83111,11.6711 L2.74222,9.78889 C2.67222,9.67222 2.70333,9.52444 2.80444,9.43889 L3.95556,8.53667 C3.93222,8.35778 3.91667,8.17889 3.91667,8 C3.91667,7.82111 3.93222,7.64222 3.95556,7.47111 L2.80444,6.56889 C2.70333,6.48333 2.67222,6.33556 2.74222,6.21889 L3.83111,4.33667 C3.90111,4.22 4.04111,4.17333 4.16556,4.22 L5.51889,4.76444 C5.79889,4.54667 6.11,4.36778 6.43667,4.22778 L6.63889,2.78889 C6.66222,2.65667 6.77889,2.55556 6.91111,2.55556 L9.08889,2.55556 C9.22111,2.55556 9.33778,2.65667 9.36111,2.78111 L9.56333,4.22 C9.89778,4.36 10.2011,4.53889 10.4811,4.75667 L11.8344,4.21222 C11.9589,4.16556 12.0989,4.21222 12.1689,4.32889 L13.2578,6.21111 C13.3278,6.32778 13.2967,6.47556 13.1956,6.56111 L12.0444,7.46333 C12.0678,7.64222 12.0833,7.82111 12.0833,8 L12.0833,8 Z"/></svg>