<svg xmlns="http://www.w3.org/2000/svg" width="100" height="33" viewBox="0 0 100 33"><g fill="none" fill-rule="evenodd"><path fill="#FFF" d="M42.9308219,10.7020548 L42.9308219,15.7164384 C45.4541096,15.5 47.4287671,15.3020548 47.4287671,12.8534247 C47.4287671,11.2849315 46.5219178,10.7020548 44.0821918,10.7020548 L42.9308219,10.7020548 L42.9308219,10.7020548 Z M51.6294521,25.3787671 L47.1287671,25.3787671 L45.9431507,21.3452055 C45.4856164,19.7609589 44.7972603,18.6739726 44.3342466,18.2089041 L42.9006849,18.3253425 L42.9006849,25.3787671 L38.9315068,25.3787671 L38.9315068,7.71917808 L44.230137,7.71917808 C47.9130137,7.71917808 51.3219178,8.32876712 51.3219178,12.75 C51.3219178,15.2130137 50.2582192,16.7335616 47.9794521,17.5226027 C48.6191781,17.9760274 49.2534247,18.9527397 49.740411,20.2431507 L51.6294521,25.3787671 Z M57.9739726,19.4678082 L61.9287671,19.4678082 L60.9253425,15.2123288 C60.5410959,13.6123288 60.1239726,11.6164384 59.9506849,10.7712329 C59.6404672,12.2543981 59.3162519,13.7346011 58.9780822,15.2116438 L57.9739726,19.4678082 L57.9739726,19.4678082 Z M67.6431507,25.3787671 L63.4308219,25.3787671 L62.640411,21.980137 L57.4294521,21.980137 L56.6390411,25.3787671 L52.4267123,25.3787671 L57.6006849,7.71917808 L62.4691781,7.71917808 L67.6431507,25.3787671 Z M69.5876712,25.3787671 L73.5856164,25.3787671 L73.5856164,7.71917808 L69.5876712,7.71917808 L69.5876712,25.3787671 Z M87.2150685,25.3787671 L77.7506849,25.3787671 L77.7506849,7.71917808 L81.7493151,7.71917808 L81.7493151,22.2383562 L87.590411,22.2383562 L87.2150685,25.3787671 L87.2150685,25.3787671 Z M99.6287671,25.3787671 L88.7465753,25.3787671 L88.7465753,22.6232877 L88.7582192,22.6034247 L95.6150685,10.8589041 L88.7465753,10.8589041 L88.7465753,7.71917808 L99.8273973,7.71917808 L99.8273973,10.4732877 L99.8157534,10.4931507 L92.9589041,22.2383562 L99.9171233,22.2383562 L99.6287671,25.3787671 L99.6287671,25.3787671 Z"/><polygon fill="#38D88C" points="0 8.221 0 24.653 14.234 16.436 .002 8.219"/><polygon fill="#A6FFD5" points="14.236 16.434 28.468 8.216 14.236 0"/><polygon fill="#69F2B1" points="14.236 0 .003 8.218 14.234 16.435 14.236 16.434"/><polygon fill="#6DDDA8" points="17.567 14.512 17.567 14.514 28.471 20.809 28.471 8.221 28.467 8.219 17.566 14.512"/><polygon fill="#19564A" points="0 24.653 0 24.658 14.236 32.877 14.236 16.437 14.234 16.436"/></g></svg>